<svg aria-hidden="true" style="position:absolute;width:0;height:0" xmlns="http://www.w3.org/2000/svg" overflow="hidden"><defs><symbol id="icon-logo-6" viewBox="0 0 32 32"><path fill="var(--color1, #afb1b8)" d="M16.086 15.349a1.096 1.096 0 01-.205-.721v.003-1.039c0-.318.068-.56.204-.726s.37-.248.701-.247c.311 0 .532.07.663.211.142.18.212.4.196.622v.244h-.556v-.247a1.4 1.4 0 00-.016-.242.24.24 0 00-.079-.144.302.302 0 00-.178-.057l-.024.001h.001l-.023-.001a.328.328 0 00-.19.061l.001-.001a.287.287 0 00-.092.156v.002a1.235 1.235 0 00-.022.235v.023-.001 1.261a.682.682 0 00.071.354.262.262 0 00.11.085l.002.001a.285.285 0 00.111.022l.034-.002h-.001a.288.288 0 00.198-.058l-.001.001a.257.257 0 00.082-.152v-.001a1.53 1.53 0 00.018-.253v-.256h.556v.234l.002.063a.993.993 0 01-.196.593l.002-.003c-.128.155-.346.232-.666.232s-.562-.083-.7-.253zm2.318.01c-.141-.162-.211-.397-.211-.709v-1.093c0-.309.07-.542.211-.7s.375-.237.705-.237c.327 0 .561.079.702.237s.212.392.212.701v1.093c0 .309-.072.545-.215.708s-.375.244-.699.244c-.324 0-.563-.083-.705-.243zm.964-.262a.649.649 0 00.067-.323v-1.338l.001-.036a.634.634 0 00-.068-.285l.002.004a.259.259 0 00-.112-.087l-.002-.001a.289.289 0 00-.148-.018h.002c-.011-.002-.024-.002-.038-.002a.298.298 0 00-.112.022l.002-.001a.28.28 0 00-.114.086v.001a.597.597 0 00-.067.319v-.002 1.344a.633.633 0 00.067.324.338.338 0 00.115.079l.002.001a.365.365 0 00.289-.001l-.002.001a.334.334 0 00.117-.08v-.006zm1.324-2.445h.599l.451 2.016.461-2.016h.583l.059 2.911h-.43l-.046-2.023-.445 2.023h-.346l-.461-2.03-.043 2.03h-.436l.054-2.911zm2.825 0h.933c.538 0 .807.275.807.826 0 .528-.283.791-.849.791h-.318v1.294h-.576l.004-2.911zm.797 1.244c.057.006.115.002.169-.014s.105-.042.147-.078a.497.497 0 00.083-.329l.001-.032a.949.949 0 00-.03-.239l.001.007a.22.22 0 00-.043-.08.248.248 0 00-.071-.058l-.001-.001a.559.559 0 00-.227-.048l-.032.001h.001-.224v.87h.224zm1.774-1.244h.619l.635 2.911h-.537l-.125-.671h-.552l-.129.671h-.545l.635-2.911zm.528 1.902l-.216-1.221-.215 1.222h.431zm1.238-1.902h.403l.772 1.66v-1.66h.478v2.911h-.384l-.777-1.733v1.733h-.494l.001-2.911zm2.774 1.8l-.642-1.797h.541l.392 1.154.367-1.154h.529l-.634 1.797v1.11h-.553v-1.11zm-13.652 2.383v.152h-.47v1.183h-.197v-1.183h-.472v-.152h1.14zm1.474 1.335h-.156a.065.065 0 01-.039-.013.072.072 0 01-.025-.03l-.136-.317h-.652l-.136.317a.082.082 0 01-.021.036.068.068 0 01-.039.013h-.156l.576-1.335h.2l.583 1.33zm-.954-.496h.544l-.23-.543a.915.915 0 01-.041-.119l-.002-.007-.022.071-.021.056-.228.543zm1.947.365h.108a.708.708 0 00.175-.04l.077-.033v-.3h-.233a.045.045 0 01-.037-.021.028.028 0 01-.003-.013v-.102h.447v.511a.847.847 0 01-.384.136h-.004a1.674 1.674 0 01-.165.008h-.011a.814.814 0 01-.289-.052l.006.002a.718.718 0 01-.231-.14h.001a.646.646 0 01-.147-.207l-.002-.004a.7.7 0 01-.053-.268v-.01-.009c0-.097.019-.19.054-.275l-.002.005a.617.617 0 01.148-.211.685.685 0 01.226-.137l.005-.002a.922.922 0 01.309-.05c.054 0 .107.004.16.012a.704.704 0 01.353.157l-.056.083a.052.052 0 01-.018.018.06.06 0 01-.026.007.066.066 0 01-.036-.011.969.969 0 01-.059-.033l.003.002a.461.461 0 00-.074-.035l-.003-.001a.738.738 0 00-.102-.029l-.004-.001a.769.769 0 00-.14-.012H19.423a.669.669 0 00-.22.038l.005-.001a.46.46 0 00-.276.272.659.659 0 00.001.449l-.001-.005a.49.49 0 00.283.274.605.605 0 00.228.026zm1.837-.022h.629v.152h-.822v-1.335h.197l-.005 1.183zm1.284.153h-.197v-1.335h.197v1.335zm.733-1.329a.089.089 0 01.03.024l.842 1.006-.001-.024.001-.025v.001-.995h.172v1.34H24.235a.086.086 0 01-.036-.008h.001a.126.126 0 01-.031-.025l-.841-1.005v1.038h-.165v-1.335h.102c.012 0 .023.002.033.007h-.001zm2.494-.006v.147h-.698v.441h.566v.142h-.566v.455h.698v.147h-.901v-1.332h.901zM5.143 8.591l8.75 2.279v7.985l-8.749-2.278V8.591zm-.561-.681v9.055l9.871 2.572v-9.053L4.582 7.911z"/><path fill="var(--color1, #afb1b8)" d="M9.872 23.739L0 21.165v-9.053l9.872 2.573v9.055z"/><path fill="var(--color1, #afb1b8)" d="M4.745 8.488l8.635 2.25-3.672 3.369-8.636-2.251 3.674-3.369zm-.163-.578L0 12.112l9.872 2.572 4.581-4.202-9.871-2.573zm5.846 15.32l4.025-3.693-4.025-1.05v4.742z"/></symbol><symbol id="icon-logo-5" viewBox="0 0 32 32"><path fill="var(--color1, #afb1b8)" d="M2.434 24.558a.852.852 0 01.188.548.865.865 0 01-.29.691l-.001.001a1.259 1.259 0 01-.846.253H-.001v-3.474h1.455a1.24 1.24 0 01.81.233l-.004-.002a.792.792 0 01.283.608l-.001.044v-.002a.812.812 0 01-.169.532.79.79 0 01-.443.271.842.842 0 01.502.297zm-1.742-.525h.621a.581.581 0 00.396-.116.412.412 0 00.135-.305l-.002-.036v.002l.001-.03a.426.426 0 00-.133-.31.597.597 0 00-.41-.117h.002-.611v.911zm1.078 1.332a.428.428 0 00.148-.325l-.001-.029v.001l.001-.025a.44.44 0 00-.15-.331h-.001a.635.635 0 00-.382-.127l-.043.001h.002-.651v.955h.661a.657.657 0 00.418-.12zm3.639.686L4.6 24.693h-.304v1.358H3.6v-3.474h1.318a1.294 1.294 0 01.92.297l-.002-.002a1.109 1.109 0 01.096 1.44l.002-.003a1.07 1.07 0 01-.629.353l.862 1.388h-.758zM4.296 24.22h.569c.396 0 .593-.175.593-.526l.001-.03a.519.519 0 00-.146-.361.612.612 0 00-.451-.14h.002-.577l.007 1.058zm4.919 1.132H7.828l-.245.7h-.73l1.275-3.435h.789l1.269 3.435h-.73l-.24-.699zm-.186-.526l-.507-1.466-.507 1.466h1.014zm4.951 1.225h-.692l-1.55-2.362v2.362h-.69v-3.474h.69l1.55 2.376v-2.376h.692v3.474zm3.945-.832a1.507 1.507 0 01-.617.609l-.008.004a2.037 2.037 0 01-.972.219h-1.231v-3.474h1.231l.054-.001c.335 0 .651.079.93.22l-.012-.005c.265.133.483.345.625.606.137.265.216.579.216.911s-.08.646-.222.923l.005-.011zm-.791-.083a1.27 1.27 0 00-.002-1.66l.001.002a1.193 1.193 0 00-.791-.298l-.078.002h.003-.48v2.249h.48a1.197 1.197 0 00.867-.297l-.001.001zM9.648 3.254s8.923 3.382 8.733 8.277v8.278s-8.916-3.384-8.73-8.278l-.003-8.277zm16.683 14.617a12.057 12.057 0 015.615-2.093l.054-.005v-2.591a11.716 11.716 0 00-5.641 4.642l-.028.048z"/><path fill="var(--color1, #afb1b8)" d="M25.318 18.652c1.393-2.778 3.739-4.906 6.598-5.985l.084-.028V5.172S19.292 9.99 19.561 16.959v11.786s.566-.215 1.457-.619c0-.377 0-.757.041-1.139a12.258 12.258 0 014.243-8.322l.016-.014z"/><path fill="var(--color1, #afb1b8)" d="M24.11 23.03a12.15 12.15 0 01.445-2.414 11.344 11.344 0 00-2.691 7.106v.013a34.921 34.921 0 002.618-1.387l-.174.094a11.915 11.915 0 01-.239-2.407c0-.354.015-.705.044-1.051l-.003.045zm.505.043a11.724 11.724 0 00.169 3.163l-.012-.073c3.472-2.086 7.373-5.309 7.223-9.204v-.339a11.372 11.372 0 00-6.61 3.102l.004-.004a11.356 11.356 0 00-.771 3.312l-.003.042z"/></symbol><symbol id="icon-logo-4" viewBox="0 0 32 32"><path fill="var(--color2, #2196f3)" d="M4.982 12.851h-.001c-.909 0-1.646.676-1.646 1.509v.001c0 .834.737 1.509 1.646 1.509h.001c.909 0 1.646-.676 1.646-1.509v-.001c0-.834-.737-1.509-1.646-1.509zm12.146-.482c-.002-1.158-.505-2.267-1.397-3.086s-2.102-1.28-3.365-1.282c-1.262.002-2.473.463-3.366 1.282s-1.396 1.929-1.398 3.087v6.384s9.525-.973 9.526-6.384v-.001zM0 20.848c.002.805.352 1.577.973 2.147s1.462.891 2.341.894c.878-.003 1.719-.324 2.34-.893s.971-1.341.974-2.146v-4.443S0 17.085 0 20.849zm3.314.797a.925.925 0 01-.482-.134.816.816 0 01-.317-.352l-.002-.005a.717.717 0 01-.048-.465l-.001.005c.034-.155.116-.296.237-.407a.898.898 0 01.614-.233c.119 0 .234.022.339.063l-.006-.002c.158.06.294.162.389.293a.753.753 0 01-.107 1.008l-.001.001c-.08.074-.176.133-.282.173s-.219.061-.333.061v-.003zm6.731-.443h-.658v.681h-.343v-1.665h1.084v.278h-.741v.43h.659v.277zm1.649-.114c0 .164-.029.308-.087.431a.651.651 0 01-.607.387h-.014.001a.693.693 0 01-.369-.099.68.68 0 01-.25-.279l-.002-.004a.97.97 0 01-.091-.412v-.015.001-.082c0-.164.029-.308.088-.432a.66.66 0 01.621-.388c.139 0 .261.034.369.101a.654.654 0 01.251.287.994.994 0 01.089.431v.074zm-.348-.076c0-.174-.031-.307-.094-.398a.305.305 0 00-.254-.136h-.014.001-.013a.305.305 0 00-.253.134l-.001.001c-.062.089-.094.22-.095.393v.081c0 .17.031.302.094.395s.152.14.27.14h.014a.3.3 0 00.251-.134l.001-.001c.062-.091.093-.222.094-.396v-.081zm1.46.433v-.01a.175.175 0 00-.068-.138.877.877 0 00-.247-.11 1.742 1.742 0 01-.292-.119l.01.005c-.189-.102-.283-.24-.283-.413 0-.09.025-.17.075-.24.051-.071.124-.126.219-.166s.202-.059.32-.059c.119 0 .225.021.318.065s.165.103.216.182a.473.473 0 01.078.268h-.343c0-.076-.023-.135-.072-.177a.294.294 0 00-.203-.064.316.316 0 00-.195.053.165.165 0 00-.07.136v.004c0 .054.027.099.082.136s.135.071.241.103c.195.059.337.131.427.219s.134.195.134.325c0 .144-.055.257-.164.34s-.256.122-.44.122a.864.864 0 01-.35-.069.56.56 0 01-.24-.191l-.001-.002a.489.489 0 01-.082-.274v-.011.001h.344c0 .183.11.276.329.276a.321.321 0 00.191-.049.162.162 0 00.069-.133v-.007zm1.83-.949h-.51v1.387h-.343v-1.387h-.503v-.278h1.356v.278zm1.199.665h-.658v.446h.773v.276h-1.116v-1.665h1.114v.278h-.771v.397h.658v.268zm.931.112h-.273v.61h-.343v-1.665h.619c.197 0 .348.044.455.131s.16.212.16.372a.518.518 0 01-.074.285.5.5 0 01-.22.179l-.003.001.36.68v.016h-.368l-.312-.609zm-.273-.278h.277c.086 0 .153-.021.2-.065a.236.236 0 00.071-.169v-.013.001a.25.25 0 00-.067-.185c-.044-.045-.112-.067-.204-.067h-.276v.5zm2.079.301v.587h-.343v-1.665h.649c.125 0 .235.023.329.069s.169.111.22.195c.051.084.076.18.076.287 0 .163-.056.292-.168.386s-.266.14-.463.14h-.3zm0-.278h.306c.091 0 .16-.021.207-.064a.233.233 0 00.072-.183v-.012a.273.273 0 00-.072-.186.273.273 0 00-.199-.078h-.315v.523zm2.169.143h-.658v.446h.773v.276H19.74v-1.665h1.114v.278h-.771v.397h.659v.268zm1.592-.665h-.51v1.387h-.343v-1.387h-.503v-.278h1.356v.278zm1.198.665h-.658v.446h.773v.276H22.53v-1.665h1.114v.278h-.77v.397h.658v.268zm.932.112h-.273v.61h-.343v-1.665h.619c.197 0 .348.044.455.131s.16.212.16.372a.518.518 0 01-.074.285.5.5 0 01-.22.179l-.003.001.36.68v.016h-.368l-.312-.609zm-.273-.278h.277c.086 0 .153-.021.2-.065a.236.236 0 00.071-.169v-.013.001c0-.078-.023-.14-.067-.185s-.112-.067-.204-.067h-.276v.5zm2.016.451v-.01a.175.175 0 00-.069-.139.877.877 0 00-.247-.11 1.742 1.742 0 01-.292-.119l.01.005c-.189-.102-.283-.24-.283-.413 0-.09.025-.17.075-.24.051-.071.124-.126.219-.166s.202-.059.32-.059c.119 0 .225.021.318.065s.165.103.216.182a.473.473 0 01.078.268h-.343a.223.223 0 00-.072-.177.294.294 0 00-.203-.064.316.316 0 00-.195.053.165.165 0 00-.07.136v.004c0 .054.027.099.082.136s.135.071.241.103c.195.059.337.131.427.219s.133.195.133.325c0 .144-.055.257-.163.34s-.256.122-.44.122a.864.864 0 01-.35-.069.567.567 0 01-.24-.191l-.001-.002a.489.489 0 01-.082-.274v-.011.001h.344c0 .183.11.276.329.276a.321.321 0 00.191-.049.162.162 0 00.069-.133v-.007z"/></symbol><symbol id="icon-logo-3" viewBox="0 0 32 32"><path fill="var(--color1, #afb1b8)" d="M5.215 30.852c.024 0 .045.01.061.025l.157.159a1.28 1.28 0 01-.441.302 1.64 1.64 0 01-.625.109h-.031c-.2 0-.391-.037-.568-.105l.011.004a1.277 1.277 0 01-.443-.286 1.28 1.28 0 01-.283-.433l-.003-.009a1.53 1.53 0 01-.1-.548v-.019-.019c0-.197.04-.386.111-.557l-.004.01a1.308 1.308 0 01.774-.729 1.72 1.72 0 01.586-.101h.021-.001c.193-.005.384.027.562.091.155.062.298.149.421.256l-.131.17a.118.118 0 01-.033.03h-.001a.088.088 0 01-.046.013h-.007a.118.118 0 01-.058-.019l-.07-.046-.098-.057a1.038 1.038 0 00-.303-.1l-.006-.001a1.221 1.221 0 00-.217-.018h-.017.001-.014c-.151 0-.296.028-.429.079l.008-.003a.992.992 0 00-.342.214.978.978 0 00-.221.34 1.189 1.189 0 00-.081.434v.016-.001c-.002.155.025.309.08.455.048.125.122.24.218.339.09.091.201.163.325.21.128.049.265.073.404.072.08.001.16-.004.239-.015a.907.907 0 00.362-.12c.059-.036.11-.073.157-.113l-.002.001a.12.12 0 01.074-.029zm4.527-.8c.002.192-.034.382-.106.562a1.239 1.239 0 01-.294.437h-.001c-.129.122-.283.22-.454.283l-.009.003a1.798 1.798 0 01-1.204-.004l.013.004a1.29 1.29 0 01-.755-.721l-.003-.009a1.54 1.54 0 01.004-1.138l-.004.01a1.31 1.31 0 01.297-.442c.129-.118.282-.213.451-.274l.009-.003a1.78 1.78 0 011.192 0 1.287 1.287 0 01.758.724c.072.181.109.373.107.566zm-.411 0v-.024a1.24 1.24 0 00-.078-.437l.003.009a.934.934 0 00-.21-.339.918.918 0 00-.325-.211l-.006-.002a1.3 1.3 0 00-.866 0 .92.92 0 00-.54.545l-.002.006c-.099.295-.099.61 0 .904a.916.916 0 00.543.55c.28.097.587.097.866 0a.913.913 0 00.331-.212.955.955 0 00.21-.338c.053-.145.078-.299.075-.452zm3.499.474l.042.101c.015-.036.029-.069.045-.101s.032-.067.051-.099l1.001-1.681c.02-.029.037-.047.057-.053s.044-.01.069-.01h.014-.001.296v2.734h-.35v-2.095l-.001-.047.002-.049v.002l-1.007 1.704a.153.153 0 01-.059.062h-.001a.171.171 0 01-.085.023h-.057c-.03 0-.061-.008-.086-.023s-.046-.036-.059-.062v-.001l-1.036-1.714v2.194h-.339v-2.728h.31c.024 0 .048.003.07.01h-.002a.116.116 0 01.055.052v.001l1.023 1.682c.018.028.036.06.05.094l.001.004zm3.77-.136v1.024h-.392v-2.73h.874c.165-.003.329.018.488.06a.937.937 0 01.345.17.702.702 0 01.194.263l.002.005c.046.111.069.23.067.349v.01a.82.82 0 01-.075.344l.002-.005a.757.757 0 01-.21.272l-.001.001a.973.973 0 01-.34.179l-.007.002a1.533 1.533 0 01-.472.064l-.474-.008zm0-.293h.475a.994.994 0 00.303-.041.653.653 0 00.221-.118l-.001.001a.493.493 0 00.132-.178l.001-.003a.54.54 0 00.047-.223v-.006l.001-.028a.48.48 0 00-.042-.197l.001.003a.524.524 0 00-.137-.186l-.001-.001a.799.799 0 00-.529-.147h.003-.475v1.125zm5.267 1.321h-.314a.143.143 0 01-.082-.026.179.179 0 01-.051-.062v-.001l-.267-.661h-1.338l-.277.661a.161.161 0 01-.048.061.138.138 0 01-.085.028h-.313l1.176-2.734h.408l1.192 2.733zm-1.939-1.015h1.105l-.466-1.112a1.775 1.775 0 01-.085-.244l-.003-.013-.045.143a1.464 1.464 0 01-.043.116l-.462 1.111zm3.632-1.706a.148.148 0 01.059.049l1.714 2.06v-2.122h.35v2.733h-.203a.186.186 0 01-.074-.016h.001a.204.204 0 01-.062-.051l-1.714-2.059a.737.737 0 010 .094v2.031h-.35v-2.733h.208c.024 0 .048.004.07.013zm5.014 1.634v1.085h-.392v-1.084l-1.083-1.646h.358c.028 0 .054.009.076.023.022.018.04.039.053.062l.678 1.062c.046.07.087.15.117.235l.002.008.051-.117a.969.969 0 01.069-.129l-.002.004.668-1.069a.316.316 0 01.051-.058.127.127 0 01.079-.028h.361l-1.086 1.653zm-15.937-6.234c.171.021.343.037.518.051 2.644-1.092 4.881-2.879 6.43-5.138s2.344-4.889 2.284-7.563l-2.914-2.69c.193.887.304 1.906.304 2.951 0 2.001-.406 3.908-1.139 5.642l.036-.095c-1.116 2.709-3.027 5.078-5.518 6.842z"/><path fill="var(--color1, #afb1b8)" d="M11.596 23.972l.078.015c2.663-1.758 4.693-4.213 5.827-7.048.642-1.548 1.014-3.346 1.014-5.232a14.05 14.05 0 00-.498-3.716l.023.098-4.151-3.832c1.678 3.149 2.354 6.674 1.949 10.164s-1.877 6.802-4.242 9.55zm14.077-9.366c-.705 2.937-2.418 5.586-4.884 7.554a15.221 15.221 0 01-2.24 1.497l-.08.04c2.008-.545 3.854-1.508 5.394-2.814s2.735-2.924 3.493-4.725l-1.684-1.552z"/><path fill="var(--color1, #afb1b8)" d="M25.013 14.173l-2.397-2.213c-.046 2.523-.823 4.987-2.25 7.139s-3.453 3.911-5.866 5.095h.012c.537 0 1.074-.03 1.608-.088 2.255-.85 4.248-2.202 5.799-3.934s2.613-3.794 3.093-5.998zM11.944 2.643L9.085 0C6.529.912 4.331 2.514 2.778 4.599 1.225 6.682.389 9.151.382 11.68c.01 2.796 1.029 5.507 2.896 7.707s4.476 3.762 7.414 4.44c2.622-2.949 4.158-6.593 4.383-10.403s-.872-7.586-3.131-10.781zm19.675 11.123c-.011-3.317-1.442-6.494-3.982-8.838s-5.982-3.667-9.575-3.676h-.024a14.38 14.38 0 00-4.93.865l.1-.032 17.506 16.16a11.36 11.36 0 00.905-4.481z"/></symbol><symbol id="icon-logo-2" viewBox="0 0 32 32"><path fill="var(--color1, #afb1b8)" d="M14.14 1.806h.084c.156 0 .324.015.49.03a13.96 13.96 0 012.18.329V.403a12.432 12.432 0 00-2.207-.357l-.042-.002c-.254-.02-.571-.035-.889-.043H13.472c-1.523.006-3.04.201-4.515.582a18.28 18.28 0 00-4.79 1.948v17.475a18.922 18.922 0 014.431-1.75l.135-.029a19.11 19.11 0 013.78-.586l.052-.002h.052c.216-.011.433-.017.655-.018V15.83c-1.78.024-3.493.264-5.129.695l.147-.033c-.603.157-1.185.326-1.731.513l-.623.212V3.591l.266-.128c1.89-.918 4.096-1.513 6.424-1.649l.047-.002.028-.001.029.001h-.001c.248-.012.497-.018.742-.018h.28c.129.003.258.006.388.014z"/><path fill="var(--color1, #afb1b8)" d="M18.529 3.651h-.016c-.915 0-1.811-.077-2.684-.225l.094.013c-.277-.047-.55-.103-.814-.164V20.55c1.12.277 2.271.412 3.425.404a18.446 18.446 0 004.644-.61l-.128.029a18.299 18.299 0 004.877-1.995l-.085.047V1.262a19.021 19.021 0 01-4.429 1.751l-.136.03a19.345 19.345 0 01-4.746.609zm6.908.299l.623-.209v13.63l-.266.129c-.903.442-1.962.834-3.065 1.118l-.119.026c-1.331.345-2.7.521-4.074.527-.411 0-.818-.017-1.214-.052l-.426-.038V5.064l.497.033c.361.023.735.034 1.141.034a21.098 21.098 0 005.173-.663 28.128 28.128 0 001.731-.518zM5.377 25.977a.916.916 0 00-.661-.281l-.033.001h.002-.014c-.139 0-.272.028-.393.078l.007-.003a.904.904 0 00-.51.512l-.002.006a1.002 1.002 0 00-.072.386v2.335c-.006.164.026.328.092.479a.83.83 0 00.554.479c.114.031.231.048.349.048a.984.984 0 00.968-.982v-.262h-.61v.221c0 .07-.013.138-.038.199l.001-.004a.392.392 0 01-.088.132.426.426 0 01-.255.089.308.308 0 01-.285-.125l-.001-.001a.548.548 0 01-.082-.289l.001-.025v.001-2.177a.74.74 0 01.075-.349.31.31 0 01.262-.143l.038.002H4.68h.012c.107 0 .201.052.26.131l.001.001a.494.494 0 01.102.301v.012-.001.202h.604v-.238-.011c0-.143-.027-.28-.077-.405l.003.007a.955.955 0 00-.205-.329zm3.625-.026a1.083 1.083 0 00-.694-.257 1.075 1.075 0 00-.364.066.965.965 0 00-.556.512l-.002.006a1.083 1.083 0 00-.089.452v2.239c-.004.157.026.314.089.458.055.12.135.227.236.313a.964.964 0 00.322.197 1.049 1.049 0 001.059-.198l-.001.001a.948.948 0 00.23-.313c.063-.145.093-.302.089-.458v-2.24-.02c0-.156-.033-.305-.092-.439l.003.007a1.016 1.016 0 00-.23-.327zm-.284 3.018l.002.035a.398.398 0 01-.123.289.446.446 0 01-.575 0l.001.001a.398.398 0 01-.121-.326v.002-2.24l-.001-.034a.4.4 0 01.123-.289.446.446 0 01.575 0l-.001-.001a.398.398 0 01.121.326v-.002 2.239zm5.046 1v-4.24h-.586l-.771 2.244h-.01l-.778-2.244h-.58v4.24h.606V27.39h.011l.593 1.823h.302l.598-1.823h.01v2.578h.606zm3.441-3.942a.837.837 0 00-.343-.232 1.33 1.33 0 00-.414-.065h-.026.001-.9v4.239h.604v-1.655h.311c.189.009.376-.031.545-.116a.894.894 0 00.329-.32l.002-.004a1.02 1.02 0 00.139-.369c.023-.159.034-.32.033-.482a2.426 2.426 0 00-.059-.606.906.906 0 00-.223-.39zm-.311 1.292a.538.538 0 01-.057.224l.001-.003a.342.342 0 01-.154.147l-.002.001a.617.617 0 01-.254.054l-.033-.001h.002-.276V26.3h.311l.029-.001c.088 0 .172.02.247.055l-.004-.002c.062.036.111.09.141.155l.001.002a.615.615 0 01.053.236v.281c0 .098.006.201 0 .291h-.006zm3.172-1.59h-.495l-.934 4.24h.604l.177-.911h.823l.178.911h.604l-.958-4.24zm-.557 2.752l.297-1.537h.011l.295 1.537h-.604zm4.46-.198h-.011l-.913-2.554h-.58v4.24h.604v-2.55h.012l.923 2.549h.569v-4.239h-.604v2.554zm3.691-2.554l-.486 1.686h-.012l-.486-1.686h-.639l.83 2.448v1.791h.604v-1.791l.83-2.447h-.64zM3.692 31.166h.291v.817h.198v-.817h.289v-.167h-.778v.167zm2.448-.167l-.382.984h.21l.081-.224h.392l.084.224h.215l-.391-.985h-.21zm-.031.594l.134-.365.134.365h-.268zm2.45.027h.228v.127a.378.378 0 01-.234.083h-.014a.25.25 0 01-.195-.094.406.406 0 01-.073-.234l.001-.023v.001c0-.219.095-.329.283-.329l.021-.001c.097 0 .178.067.201.157v.001l.194-.038c-.042-.192-.18-.289-.417-.289h-.013a.492.492 0 00-.331.127.48.48 0 00-.141.38v-.002.023c0 .132.048.254.127.347l-.001-.001c.087.09.209.146.343.146L8.57 32h-.001.016c.155 0 .296-.06.402-.157v-.388h-.426v.166zm2.471-.621h-.199v.984h.689v-.167h-.49v-.817zm2.089 0h-.199v.984h.199v-.985zm2.042.656l-.403-.657h-.193v.984h.185v-.643l.396.643h.198v-.985h-.182v.658zm1.846-.105h.49v-.167h-.49v-.216h.527V31h-.727v.984h.747v-.167h-.548v-.266zm4.477-.164h-.388v-.388h-.198v.984h.198v-.431h.388v.431h.198v-.985h-.197v.388zm1.858.164h.492v-.167h-.492v-.216h.529V31h-.726v.984h.746v-.167h-.548v-.266zm2.518 0c.171-.027.258-.118.258-.274a.23.23 0 00-.096-.219h-.001a.555.555 0 00-.25-.059l-.04.001h.002-.417v.984h.198v-.412h.055c.039 0 .076.008.109.023l-.002-.001a.201.201 0 01.07.072l.215.313h.236l-.12-.192a.704.704 0 00-.215-.235l-.002-.002zm-.199-.137h-.146v-.247h.156a.515.515 0 01.205.024l-.004-.001a.13.13 0 01-.009.2.537.537 0 01-.164.025l-.039-.001h.002zm2.099.137h.49v-.167h-.49v-.216h.529V31h-.728v.984h.747v-.167h-.548v-.266z"/></symbol><symbol id="icon-logo-1" viewBox="0 0 32 32"><path fill="var(--color1, #afb1b8)" d="M5 0l4.872 4.468h13.589v12.465l4.872 4.468V0H5z"/><path fill="var(--color1, #afb1b8)" d="M1 4.28v20.79h22.667v-8.264L10.016 4.285 1.001 4.28zm18.349 17.749H4.587V8.047H5.63v13.035h13.719v.947zM7.527 28.991l.545-1.123h.456l-.795 1.497v.872H7.32v-.872l-.796-1.497h.457l.545 1.123zm2.34.695H8.95l-.192.551H8.33l.895-2.369h.37l.897 2.369h-.43l-.193-.551zm-.802-.332h.687l-.343-.983-.343.983zm2.426.244c0-.109.03-.21.089-.301s.177-.201.353-.327a1.492 1.492 0 01-.189-.288l-.004-.009a.564.564 0 01-.054-.235c0-.185.056-.332.169-.439a.628.628 0 01.455-.163c.173 0 .313.051.423.153.111.1.167.226.167.375v.003a.52.52 0 01-.077.273l.001-.002a.903.903 0 01-.243.246l-.003.002-.161.117.458.541a.947.947 0 00.099-.435h.343c0 .292-.068.531-.205.718l.348.411h-.459l-.133-.157a.971.971 0 01-.58.19h-.027.001c-.234 0-.422-.062-.563-.185a.62.62 0 01-.21-.466v-.022.001zm.784.357a.609.609 0 00.374-.133l-.517-.611-.051.036c-.13.099-.195.211-.195.338 0 .11.035.199.106.267a.389.389 0 00.265.104h.02-.001zm-.218-1.527c0 .091.056.205.168.343l.18-.124.051-.04a.292.292 0 00.101-.221v-.009-.003a.206.206 0 00-.07-.155.247.247 0 00-.169-.067h-.019a.233.233 0 00-.174.078.285.285 0 00-.069.187v.011-.001zm4.305 1.038c-.024.253-.117.451-.28.593s-.379.211-.649.211h-.019a.928.928 0 01-.485-.136l.004.002a.89.89 0 01-.33-.377l-.002-.006a1.354 1.354 0 01-.122-.567v-.23c0-.223.04-.42.119-.591a.904.904 0 01.34-.393.95.95 0 01.515-.139c.261 0 .472.071.631.213s.253.343.279.602h-.41c-.02-.17-.069-.293-.15-.368-.079-.076-.196-.113-.35-.113a.48.48 0 00-.413.197c-.095.13-.144.321-.147.575v.21c0 .256.046.451.137.586s.227.201.403.201c.161 0 .283-.036.365-.109s.133-.193.155-.363h.41zm2.261-.351c0 .232-.04.436-.12.612-.081.175-.196.309-.345.403s-.32.14-.515.14a.96.96 0 01-.514-.14.946.946 0 01-.346-.396l-.002-.006a1.394 1.394 0 01-.123-.578v-.023.001-.133c0-.231.04-.435.122-.613s.198-.312.347-.405c.15-.094.321-.141.514-.141s.365.047.513.14a.91.91 0 01.347.4c.081.173.123.376.123.607v.132zm-.412-.124c0-.263-.05-.463-.149-.603a.485.485 0 00-.4-.21l-.023.001h.001-.017a.488.488 0 00-.4.209l-.001.002c-.1.139-.151.335-.153.591v.137c0 .26.051.461.152.604s.243.213.423.213c.183 0 .323-.07.42-.209.099-.139.148-.342.148-.609v-.124z"/></symbol><symbol id="icon-linkedin" viewBox="0 0 32 32"><path fill="var(--color3, #fff)" d="M32 16v.02a15.9 15.9 0 01-4.686 11.293A15.902 15.902 0 0116.021 32H16h.001-.02a15.9 15.9 0 01-11.293-4.686A15.902 15.902 0 01.001 16.021V16v-.019A15.9 15.9 0 014.687 4.688 15.902 15.902 0 0115.98.001h.021H16h.02a15.9 15.9 0 0111.293 4.686A15.902 15.902 0 0132 15.98v.021V16z"/><path fill="var(--color1, #afb1b8)" d="M23.269 23.273h.004v-5.335c0-2.609-.561-4.62-3.612-4.62-1.467 0-2.451.804-2.853 1.568h-.042v-1.324h-2.893v9.711h3.012v-4.808c0-1.266.24-2.491 1.808-2.491 1.545 0 1.568 1.445 1.568 2.572v4.728h3.009zM8.967 13.562h3.016v9.711H8.967v-9.711zm1.507-4.835c-.965 0-1.747.782-1.747 1.747 0 .964.783 1.763 1.747 1.763s1.746-.799 1.746-1.763c0-.964-.782-1.746-1.746-1.747z"/></symbol><symbol id="icon-facebook" viewBox="0 0 32 32"><path fill="var(--color3, #fff)" d="M32 16v.02a15.9 15.9 0 01-4.686 11.293A15.902 15.902 0 0116.021 32H16h.001-.02a15.9 15.9 0 01-11.293-4.686A15.902 15.902 0 01.001 16.021V16v-.019A15.9 15.9 0 014.687 4.688 15.902 15.902 0 0115.98.001h.021H16h.02a15.9 15.9 0 0111.293 4.686A15.902 15.902 0 0132 15.98v.021V16z"/><path fill="var(--color1, #afb1b8)" d="M18.422 11.142h1.329V8.829c-.56-.065-1.21-.102-1.867-.102h-.071.004c-1.915 0-3.226 1.204-3.226 3.418v2.036h-2.113v2.585h2.113v6.505h2.59v-6.505h2.028l.321-2.585h-2.349v-1.782c0-.747.201-1.258 1.243-1.258z"/></symbol><symbol id="icon-twit" viewBox="0 0 32 32"><path fill="var(--color3, #fff)" d="M32 16v.02a15.9 15.9 0 01-4.686 11.293A15.902 15.902 0 0116.021 32H16h.001-.02a15.9 15.9 0 01-11.293-4.686A15.902 15.902 0 01.001 16.021V16v-.019A15.9 15.9 0 014.687 4.688 15.902 15.902 0 0115.98.001h.021H16h.02a15.9 15.9 0 0111.293 4.686A15.902 15.902 0 0132 15.98v.021V16z"/><path fill="var(--color1, #afb1b8)" d="M23.273 11.49c-.5.224-1.08.39-1.688.467l-.031.003a2.98 2.98 0 001.306-1.627l.006-.021a5.851 5.851 0 01-1.853.715l-.038.006a2.981 2.981 0 00-5.158 2.036v.003c0 .236.02.464.07.68a8.443 8.443 0 01-6.147-3.119 2.984 2.984 0 00.917 3.986 2.937 2.937 0 01-1.362-.375l.015.008v.033a2.995 2.995 0 002.37 2.927l.02.003a2.906 2.906 0 01-.756.098h-.028.001-.047c-.183 0-.362-.019-.534-.054l.017.003a3.012 3.012 0 002.786 2.078 5.948 5.948 0 01-3.69 1.271h-.047c-.238 0-.472-.015-.701-.044l.027.003a8.317 8.317 0 004.547 1.338h.029-.002c5.487 0 8.487-4.545 8.487-8.486 0-.131-.004-.259-.011-.385a5.978 5.978 0 001.481-1.526l.014-.021z"/></symbol><symbol id="icon-insta" viewBox="0 0 32 32"><path fill="var(--color2, #2196f3)" d="M32 16v.02a15.9 15.9 0 01-4.686 11.293A15.902 15.902 0 0116.021 32H16h.001-.02a15.9 15.9 0 01-11.293-4.686A15.902 15.902 0 01.001 16.021V16v-.019A15.9 15.9 0 014.687 4.688 15.902 15.902 0 0115.98.001h.021H16h.02a15.9 15.9 0 0111.293 4.686A15.902 15.902 0 0132 15.98v.021V16z"/><path fill="var(--color3, #fff)" d="M23.258 13.004c-.033-.773-.159-1.304-.337-1.764a3.57 3.57 0 00-.841-1.29l-.001-.001a3.583 3.583 0 00-1.263-.83l-.024-.008c-.463-.179-.991-.304-1.764-.337-.778-.037-1.025-.046-3.001-.046s-2.222.009-2.998.043c-.773.033-1.304.159-1.764.338a3.58 3.58 0 00-1.29.84l-.001.001c-.36.354-.645.784-.83 1.263l-.008.024c-.18.463-.304.991-.338 1.764-.037.778-.046 1.025-.046 3.001s.009 2.222.043 2.998c.034.773.159 1.304.338 1.764.194.505.48.935.84 1.29h.001c.364.369.804.656 1.287.838.463.18.992.305 1.764.338.776.034 1.023.043 2.998.043s2.222-.009 2.998-.043c.773-.033 1.304-.159 1.764-.337a3.741 3.741 0 002.12-2.104l.009-.025c.179-.463.304-.992.338-1.764.034-.776.042-1.023.042-2.998s-.003-2.222-.036-2.998zm-1.309 5.939c-.032.711-.151 1.094-.25 1.349a2.428 2.428 0 01-1.365 1.376l-.016.006c-.255.099-.641.218-1.349.249-.767.034-.997.043-2.938.043s-2.174-.009-2.938-.043c-.711-.031-1.094-.151-1.35-.25a2.237 2.237 0 01-.834-.542l-.001-.001a2.268 2.268 0 01-.538-.819l-.005-.016c-.099-.256-.218-.642-.249-1.35-.034-.767-.043-.998-.043-2.938s.009-2.175.043-2.938c.031-.711.151-1.094.249-1.35.122-.328.308-.608.545-.835l.001-.001c.229-.235.509-.42.821-.537l.016-.005c.255-.099.641-.218 1.349-.25.767-.033.998-.042 2.938-.042 1.943 0 2.174.008 2.938.042.711.031 1.094.151 1.35.25.315.116.602.301.835.543.241.236.426.52.543.836.099.255.218.641.249 1.349.034.767.043.997.043 2.938s-.009 2.167-.043 2.935z"/><path fill="var(--color3, #fff)" d="M16.027 12.265a3.737 3.737 0 00-3.737 3.737v.001a3.737 3.737 0 103.737-3.737h-.001zm0 6.16a2.424 2.424 0 110-4.848 2.424 2.424 0 110 4.848zm4.757-6.308a.873.873 0 01-1.746 0 .873.873 0 011.746 0z"/></symbol><symbol id="icon-envelope" viewBox="0 0 32 32"><path fill="var(--color4, #757575)" d="M29 4H3C1.346 4 0 5.256 0 6.8v16.804c0 1.544 1.346 2.8 3 2.8h26c1.654 0 3-1.256 3-2.8V6.8C32 5.256 30.654 4 29 4zm0 1.866c.136 0 .266.028.384.074L16 16.768 2.616 5.94c.114-.046.246-.073.384-.074h26zm0 18.67H3c-.552 0-1-.418-1-.932V7.912l13.344 10.796c.176.142.403.228.65.228h.012c.247 0 .474-.086.652-.23l-.002.002L30 7.912v15.692c0 .514-.448.932-1 .932z"/></symbol><symbol id="icon-smartphone" viewBox="0 0 32 32"><path fill="var(--color4, #757575)" d="M23.467 0H8.534c-1.764 0-3.2 1.34-3.2 2.987v25.89c0 1.647 1.436 2.987 3.2 2.987h14.933c1.764 0 3.2-1.34 3.2-2.987V2.987c0-1.647-1.436-2.987-3.2-2.987zM8.533 1.993h14.933c.589 0 1.067.446 1.067.994v20.911H7.466V2.987c0-.548.478-.994 1.067-.994zm14.934 27.88H8.534c-.589 0-1.067-.448-1.067-.996V25.89h17.067v2.987c0 .548-.478.994-1.067.994z"/><path fill="var(--color4, #757575)" d="M10.355 27.177a.947.947 0 010 1.407l-.001.001c-.198.182-.464.293-.755.293s-.557-.111-.756-.294l.001.001a.947.947 0 010-1.407l.001-.001c.198-.182.464-.293.755-.293s.557.111.756.294l-.001-.001z"/></symbol><symbol id="icon-astronaut" viewBox="0 0 32 32"><path fill="var(--color2, #2196f3)" d="M31.974 4.524a.534.534 0 00-.43-.363l-1.91-.278-.855-1.731c-.179-.365-.777-.365-.956 0l-.855 1.731-1.91.278a.535.535 0 00-.296.91l1.383 1.348-.326 1.903c-.034.2.048.402.212.522a.53.53 0 00.562.04l1.709-.899 1.709.899a.536.536 0 00.775-.563l-.326-1.903 1.383-1.348a.536.536 0 00.135-.547zm-2.463 1.327a.534.534 0 00-.153.472l.191 1.114-1-.526a.533.533 0 00-.498 0l-1.001.526.191-1.114a.534.534 0 00-.153-.472l-.81-.789 1.119-.163a.532.532 0 00.402-.292l.5-1.013.5 1.013a.535.535 0 00.402.292l1.119.163-.809.789zM26.133 20.522h-1.067v1.067h1.067v-1.067zM26.133 22.656h-1.067v1.067h1.067v-1.067zM27.2 21.589h-1.067v1.067H27.2v-1.067zM25.067 21.589H24v1.067h1.067v-1.067zM22.4 26.389h-1.067v1.067H22.4v-1.067zM22.4 28.522h-1.067v1.067H22.4v-1.067zM23.467 27.456H22.4v1.067h1.067v-1.067zM21.333 27.456h-1.067v1.067h1.067v-1.067zM16 24.256h-1.067v1.067H16v-1.067zM16 26.389h-1.067v1.067H16v-1.067zM17.067 25.322H16v1.067h1.067v-1.067zM14.933 25.322h-1.067v1.067h1.067v-1.067zM5.866 6.122H4.799v1.067h1.067V6.122zM5.866 8.255H4.799v1.067h1.067V8.255z"/><path fill="var(--color2, #2196f3)" d="M6.933 7.189H5.866v1.067h1.067V7.189zM4.8 7.189H3.733v1.067H4.8V7.189z"/><path fill="var(--color5, #212121)" d="M24.715 14.159a1.775 1.775 0 00-1.188-.705 1.778 1.778 0 00-1.34.352l-1.252.96-1.898 1.417-1.358-.541c2.421-1.086 4.114-3.508 4.114-6.32 0-3.823-3.123-6.933-6.961-6.933s-6.961 3.11-6.961 6.933a6.86 6.86 0 001.12 3.758l-2.764-.024h-.005c-.009 0-.015.004-.023.005a.515.515 0 00-.155.031l-.038.013c-.006.003-.013.003-.019.006l-3.233 1.596-.001.001-1.893.911a.397.397 0 00-.063.035 1.779 1.779 0 00-.598 2.295c.22.429.595.745 1.056.889a1.776 1.776 0 001.378-.128l1.388-.738 2.264-1.169 1.357-.008L2.2 22.211l-.002.001-1.339 1.333c-.316.315-.49.732-.49 1.178s.174.863.49 1.179c.325.323.752.485 1.179.485s.854-.162 1.18-.485l1.314-1.309 1.741-1.3.901.897-1.762 1.754-.002.001-1.339 1.333c-.316.315-.49.732-.49 1.178s.174.863.49 1.179c.325.323.753.485 1.18.485s.855-.162 1.18-.485l3.482-3.467.001-.002 1.01-1-.004-.004c.006-.006.015-.009.022-.015l5.166-5.658 3.471.494a.52.52 0 00.262-.033c.018-.006.033-.015.05-.023.019-.01.039-.015.058-.027l3.213-2.133c.012-.008.018-.021.029-.029.013-.01.029-.014.041-.026l1.271-1.191c.662-.62.753-1.635.212-2.362zM2.13 17.77a.714.714 0 01-.558.052.717.717 0 01-.213-1.26l1.314-.632.449 1.313-.992.527zm3.498-1.828l-1.548.8-.439-1.283 2.027-1.001-.04 1.484zm15.099-6.62a5.79 5.79 0 01-.599 2.559l-4.181-1.899a1.863 1.863 0 00-.788-1.388l1.464-4.86c2.378.756 4.105 2.974 4.105 5.588zm-11.789 0c0-3.235 2.644-5.867 5.894-5.867.253 0 .5.021.745.052l-1.432 4.754c-.019-.001-.037-.006-.057-.006-1.033 0-1.873.837-1.873 1.867s.84 1.867 1.873 1.867c.694 0 1.294-.383 1.618-.945l3.862 1.755a5.894 5.894 0 01-4.737 2.39c-3.25 0-5.894-2.632-5.894-5.867zm5.956.8c0 .441-.362.8-.806.8s-.806-.359-.806-.8c0-.441.362-.8.806-.8s.806.359.806.8zM2.465 25.146a.608.608 0 01-.854.001.592.592 0 010-.844l.962-.959.851.848-.959.955zm3.214 3.734a.608.608 0 01-.855.001.592.592 0 010-.844l.963-.959.852.848-.96.955zm3.481-3.469l-.002.001-1.765 1.76-.852-.848 1.763-1.755.002-.001c.04-.04.065-.088.09-.135.007-.014.02-.026.026-.04.017-.041.019-.085.026-.129.003-.025.014-.047.014-.073 0-.036-.013-.07-.02-.106-.006-.032-.006-.065-.019-.095a.55.55 0 00-.091-.138c-.01-.012-.014-.027-.025-.038h-.001l-.001-.002-1.607-1.6c-.017-.017-.039-.024-.058-.038a.507.507 0 00-.087-.058.515.515 0 00-.093-.033.507.507 0 00-.103-.02.5.5 0 00-.095.005.53.53 0 00-.104.02.477.477 0 00-.094.045c-.02.011-.042.015-.061.029L4.23 23.486l-.901-.897 2.399-2.386 4.361 4.289-.928.919zm6.819-7.017c-.015-.002-.03.004-.045.003a.556.556 0 00-.3.075.492.492 0 00-.083.061c-.013.011-.028.017-.04.029l-4.698 5.146-4.328-4.257 2.833-2.818a.534.534 0 00-.379-.911v-.001l-2.219.013.028-1.607 3.104.027a6.947 6.947 0 004.981 2.101c.437 0 .864-.045 1.279-.123.04.032.079.065.13.085l2.41.96.152.758.178.885-3.003-.427zm4.041.178l-.313-1.558 1.446-1.08.947 1.257-2.08 1.381zm3.754-2.831l-.838.785-.931-1.236.831-.637a.735.735 0 01.543-.143.718.718 0 01.48.284.713.713 0 01-.085.947z"/><path fill="var(--color5, #212121)" d="M13.602 18.544l-2.143-2.133a.534.534 0 00-.753 0l-2.142 2.133a.537.537 0 000 .756l2.142 2.133a.536.536 0 00.753 0l2.143-2.133a.535.535 0 000-.756zm-2.519 1.759l-1.387-1.381 1.387-1.381 1.387 1.381-1.387 1.381zM17.164 5.071l-.258 1.036c.071.018 1.738.452 1.738 2.149h1.067c0-2.017-1.666-2.965-2.547-3.185zM19.711 9.322h-1.067v1.067h1.067V9.322z"/></symbol><symbol id="icon-diagram" viewBox="0 0 32 32"><path fill="var(--color2, #2196f3)" d="M14.926 14.965h1.066v4.798h-1.066v-4.797zM19.19 17.097h1.066v2.665H19.19v-2.665zM10.661 18.696h1.066v1.066h-1.066v-1.066zM7.463 18.163h1.066v1.599H7.463v-1.599z"/><path fill="var(--color5, #212121)" d="M1.599 28.291h25.587a1.6 1.6 0 001.599-1.599V24.56a1.6 1.6 0 00-1.599-1.599h-.533V9.668L29.681 6.8a1.608 1.608 0 10-.746-.763L26.654 8.2V6.97a1.6 1.6 0 00-1.599-1.599H3.733A1.6 1.6 0 002.134 6.97v15.992h-.533a1.6 1.6 0 00-1.599 1.599v2.132a1.6 1.6 0 001.599 1.599zM30.384 4.837a.533.533 0 110 1.067.533.533 0 010-1.067zM3.198 6.969c0-.294.239-.533.533-.533h21.322c.294 0 .533.239.533.533v2.239l-1.066 1.013V8.035a.533.533 0 00-.533-.533H4.797a.533.533 0 00-.533.533v13.326c0 .294.239.533.533.533h19.19a.533.533 0 00.533-.533v-9.674l1.066-1.01v12.284H3.198V6.969zm4.798 6.93a1.598 1.598 0 101.107 2.749l1.853.93a.532.532 0 00.636-.123l3.939-4.431 3.872 2.901a.533.533 0 00.686-.039l3.365-3.188v8.131H5.33V8.569h18.124v2.66l-3.771 3.572-3.904-2.927a.533.533 0 00-.718.072l-3.993 4.493-1.493-.746c.011-.064.018-.129.02-.193a1.6 1.6 0 00-1.599-1.599zm.533 1.599a.533.533 0 11-1.067 0 .533.533 0 011.067 0zm3.198 8.528h5.331v.533a.533.533 0 01-.533.533h-4.264a.533.533 0 01-.533-.533v-.533zm-10.661.534c0-.294.239-.533.533-.533h9.062v.533a1.6 1.6 0 001.599 1.599h4.264a1.6 1.6 0 001.599-1.599v-.533h9.062c.294 0 .533.239.533.533v2.132a.533.533 0 01-.533.533H1.598a.533.533 0 01-.533-.533V24.56z"/></symbol><symbol id="icon-clock" viewBox="0 0 32 32"><path fill="var(--color5, #212121)" d="M31.297 15.301C31.295 6.849 24.442-.002 15.989 0S.686 6.855.688 15.308a15.304 15.304 0 0010.649 14.576.662.662 0 00.529-.065.637.637 0 00.283-.356l3.865-12.25a1.912 1.912 0 10-.84-3.635l-5.106-5.107a.637.637 0 00-.902.902l5.103 5.109a1.876 1.876 0 00.536 2.309l-3.683 11.673C3.844 25.783.118 17.71 2.799 10.432S13.553-.572 20.831 2.109s11.004 10.754 8.323 18.032a14.042 14.042 0 01-7.462 7.973l-.398-1.874a.638.638 0 00-1.048-.344l-3.837 3.426a.637.637 0 00.231 1.084l4.899 1.563a.638.638 0 00.819-.74l-.391-1.839a15.255 15.255 0 009.329-14.089zm-15.305-.637a.638.638 0 110 1.277.638.638 0 010-1.277zm2.101 14.864l2.184-1.948.603 2.84-2.787-.892z"/><path fill="var(--color2, #2196f3)" d="M15.354 3.185V4.46a.638.638 0 101.276 0V3.185a.638.638 0 00-1.276 0zM3.876 14.664a.638.638 0 000 1.276h1.275a.638.638 0 100-1.276H3.876zM28.108 15.939a.638.638 0 100-1.276h-1.275a.638.638 0 000 1.276h1.275z"/></symbol><symbol id="icon-antenna" viewBox="0 0 32 32"><path fill="var(--color5, #212121)" d="M30.773 22.098l-8.443-8.505.937-4.615c.242.094.499.144.758.146h.006a2.159 2.159 0 10-2.008-1.435l-4.96.605L8.972.161a.534.534 0 00-.377-.16.532.532 0 00-.373.155L6.709 1.66a.534.534 0 000 .754l.814.826a14.943 14.943 0 002.519 17.663.513.513 0 00.146.098c-.034.18-.051.364-.052.547v6.187h-6.4a2.67 2.67 0 00-2.667 2.667v1.067c0 .295.239.533.533.533h24.533a.533.533 0 00.533-.533v-1.067a2.67 2.67 0 00-2.667-2.667h-6.4v-2.742a15.09 15.09 0 003.049.32 14.854 14.854 0 007.04-1.783l.818.823a.534.534 0 00.377.16.532.532 0 00.373-.155l1.513-1.504a.534.534 0 000-.754zM23.28 6.233a1.066 1.066 0 11.752 1.822h-.003a1.067 1.067 0 01-.747-1.823h-.002zm-1.256 3.505l-.598 2.946-1.175-1.182 1.774-1.763zm-.605-.902l-1.92 1.909-1.485-1.493 3.405-.415zM24.004 28.8a1.6 1.6 0 011.6 1.6v.533H2.137V30.4a1.6 1.6 0 011.6-1.6h20.267zm-7.467-2.133v1.067h-5.333v-1.067h5.333zM11.204 25.6v-4.053c0-1.294 1.196-2.347 2.667-2.347s2.667 1.053 2.667 2.347V25.6h-5.333zm6.4-1.696v-2.357c0-1.882-1.675-3.413-3.733-3.413a3.8 3.8 0 00-3.281 1.786A13.87 13.87 0 018.311 4.033l18.602 18.708a13.818 13.818 0 01-9.309 1.163zm11.289-.684L7.836 2.039l.755-.752 7.935 7.98c.004 0 .006.007.01.01l13.115 13.191-.757.752z"/><path fill="var(--color2, #2196f3)" d="M13.876 20.267h-.005a1.6 1.6 0 10-.004 3.2h.005a1.6 1.6 0 10.004-3.2zm.373 1.978a.534.534 0 01-.752-.756.534.534 0 01.373-.155.532.532 0 01.373.911h.005z"/></symbol></defs></svg>